<?xml version="1.0" encoding="utf-8"?>
<svg id="master-artboard" viewBox="0 0 1400 980" xmlns="http://www.w3.org/2000/svg" width="1400px" height="980px" version="1.1" style="shape-rendering:geometricPrecision; text-rendering:geometricPrecision; image-rendering:optimizeQuality; fill-rule:evenodd; clip-rule:evenodd"><rect id="ee-background" x="0" y="0" width="1400" height="980" style="fill: white; fill-opacity: 0; pointer-events: none;"/><g><g transform="matrix(40.83333206176758, 0, 0, 40.83333206176758, 209.9999237060547, 0)"><mask id="mask0_69_667" style="mask-type:alpha" maskUnits="userSpaceOnUse" x="0" y="0" width="24" height="24">
<path d="M 0 0 H 24 V 24 H 0 V 0 Z" fill="#D9D9D9"/>
</mask><g mask="url(#mask0_69_667)">
<path d="M 12 21 L 10.55 19.7 C 8.866670000000001 18.1833 7.475 16.875 6.375 15.775 C 5.275 14.675 4.4 13.6873 3.75 12.812 C 3.1 11.9373 2.646 11.1333 2.388 10.4 C 2.12933 9.66666 2 8.91666 2 8.14999 C 2 6.58333 2.525 5.27499 3.575 4.22499 C 4.625 3.17499 5.93333 2.64999 7.5 2.64999 C 8.36667 2.64999 9.19167 2.83333 9.975 3.19999 C 10.7583 3.56666 11.433300000000001 4.08333 12 4.74999 C 12.5667 4.08333 13.2417 3.56666 14.025 3.19999 C 14.8083 2.83333 15.6333 2.64999 16.5 2.64999 C 18.0667 2.64999 19.375 3.17499 20.425 4.22499 C 21.475 5.27499 22 6.58333 22 8.14999 C 22 8.91666 21.871 9.66666 21.613 10.4 C 21.3543 11.1333 20.9 11.9373 20.25 12.812 C 19.6 13.6873 18.725 14.675 17.625 15.775 C 16.525 16.875 15.1333 18.1833 13.45 19.7 L 12 21 Z" fill="black" style="fill-opacity: 1;"/>
</g></g></g></svg>