<?xml version="1.0" encoding="UTF-8" standalone="no"?>
<svg
   width="24"
   height="24"
   viewBox="0 0 24 24"
   fill="none"
   version="1.1"
   id="svg22"
   sodipodi:docname="fav-black-icon-filled.svg"
   xml:space="preserve"
   inkscape:version="1.2.2 (732a01da63, 2022-12-09)"
   xmlns:inkscape="http://www.inkscape.org/namespaces/inkscape"
   xmlns:sodipodi="http://sodipodi.sourceforge.net/DTD/sodipodi-0.dtd"
   xmlns="http://www.w3.org/2000/svg"
   xmlns:svg="http://www.w3.org/2000/svg"><defs
     id="defs26" /><sodipodi:namedview
     id="namedview24"
     pagecolor="#ffffff"
     bordercolor="#000000"
     borderopacity="0.25"
     inkscape:showpageshadow="2"
     inkscape:pageopacity="0.0"
     inkscape:pagecheckerboard="0"
     inkscape:deskcolor="#d1d1d1"
     showgrid="false"
     inkscape:zoom="2.8284271"
     inkscape:cx="-18.031223"
     inkscape:cy="6.363961"
     inkscape:window-width="1920"
     inkscape:window-height="1027"
     inkscape:window-x="-8"
     inkscape:window-y="-8"
     inkscape:window-maximized="1"
     inkscape:current-layer="layer1" /><mask
     id="mask0_69_667"
     style="mask-type:alpha"
     maskUnits="userSpaceOnUse"
     x="0"
     y="0"
     width="24"
     height="24"><rect
       width="24"
       height="24"
       fill="#D9D9D9"
       id="rect15" /></mask><g
     inkscape:groupmode="layer"
     id="layer1"
     inkscape:label="Layer 1"><path
       d="m 12,18.3 c 1.6,-1.4333 2.9167,-2.6627 3.95,-3.688 1.0333,-1.0247 1.85,-1.916 2.45,-2.674 0.6,-0.7587 1.0167,-1.434 1.25,-2.02601 0.2333,-0.59133 0.35,-1.17866 0.35,-1.762 0,-1 -0.3333,-1.83333 -1,-2.5 -0.6667,-0.66666 -1.5,-1 -2.5,-1 -0.7833,0 -1.5083,0.22067 -2.175,0.662 -0.6667,0.442 -1.125,1.00467 -1.375,1.688 h -1.9 C 10.8,6.31666 10.3417,5.75399 9.675,5.31199 9.00833,4.87066 8.28333,4.64999 7.5,4.64999 c -1,0 -1.83333,0.33334 -2.5,1 -0.66667,0.66667 -1,1.5 -1,2.5 0,0.58334 0.11667,1.17067 0.35,1.762 C 4.58333,10.504 5,11.1793 5.6,11.938 c 0.6,0.758 1.41667,1.6493 2.45,2.674 1.03333,1.0253 2.35,2.2547 3.95,3.688 z"
       fill="#000000"
       id="path1871"
       inkscape:label="path18"
       sodipodi:nodetypes="ccccscsccccscscccc"
       style="fill:#d40000" /></g><g
     mask="url(#mask0_69_667)"
     id="g20"
     style="display:inline"><path
       d="M 12,21 10.55,19.7 C 8.86667,18.1833 7.475,16.875 6.375,15.775 5.275,14.675 4.4,13.6873 3.75,12.812 3.1,11.9373 2.646,11.1333 2.388,10.4 2.12933,9.66666 2,8.91666 2,8.14999 c 0,-1.56666 0.525,-2.875 1.575,-3.925 1.05,-1.05 2.35833,-1.575 3.925,-1.575 0.86667,0 1.69167,0.18334 2.475,0.55 0.7833,0.36667 1.4583,0.88334 2.025,1.55 0.5667,-0.66666 1.2417,-1.18333 2.025,-1.55 0.7833,-0.36666 1.6083,-0.55 2.475,-0.55 1.5667,0 2.875,0.525 3.925,1.575 1.05,1.05 1.575,2.35834 1.575,3.925 0,0.76667 -0.129,1.51667 -0.387,2.25001 -0.2587,0.7333 -0.713,1.5373 -1.363,2.412 -0.65,0.8753 -1.525,1.863 -2.625,2.963 -1.1,1.1 -2.4917,2.4083 -4.175,3.925 z m 0,-2.7 c 1.6,-1.4333 2.9167,-2.6627 3.95,-3.688 1.0333,-1.0247 1.85,-1.916 2.45,-2.674 0.6,-0.7587 1.0167,-1.434 1.25,-2.02601 0.2333,-0.59133 0.35,-1.17866 0.35,-1.762 0,-1 -0.3333,-1.83333 -1,-2.5 -0.6667,-0.66666 -1.5,-1 -2.5,-1 -0.7833,0 -1.5083,0.22067 -2.175,0.662 -0.6667,0.442 -1.125,1.00467 -1.375,1.688 h -1.9 C 10.8,6.31666 10.3417,5.75399 9.675,5.31199 9.00833,4.87066 8.28333,4.64999 7.5,4.64999 c -1,0 -1.83333,0.33334 -2.5,1 -0.66667,0.66667 -1,1.5 -1,2.5 0,0.58334 0.11667,1.17067 0.35,1.762 C 4.58333,10.504 5,11.1793 5.6,11.938 c 0.6,0.758 1.41667,1.6493 2.45,2.674 1.03333,1.0253 2.35,2.2547 3.95,3.688 z"
       fill="#000000"
       id="path2228"
       inkscape:label="path18"
       style="display:inline" /></g></svg>
