<svg width="16" height="16" viewBox="0 0 16 16" fill="none" xmlns="http://www.w3.org/2000/svg">
<mask id="mask0_69_402" style="mask-type:alpha" maskUnits="userSpaceOnUse" x="0" y="0" width="16" height="16">
<rect width="16" height="16" fill="#D9D9D9"/>
</mask>
<g mask="url(#mask0_69_402)">
<path d="M8.00004 14.2333L7.03337 13.3667C5.91115 12.3556 4.98337 11.4833 4.25004 10.75C3.51671 10.0167 2.93337 9.35822 2.50004 8.77467C2.06671 8.19156 1.76404 7.65556 1.59204 7.16667C1.4196 6.67778 1.33337 6.17778 1.33337 5.66667C1.33337 4.62222 1.68337 3.75 2.38337 3.05C3.08337 2.35 3.9556 2 5.00004 2C5.57782 2 6.12782 2.12222 6.65004 2.36667C7.17226 2.61111 7.62226 2.95556 8.00004 3.4C8.37782 2.95556 8.82782 2.61111 9.35004 2.36667C9.87226 2.12222 10.4223 2 11 2C12.0445 2 12.9167 2.35 13.6167 3.05C14.3167 3.75 14.6667 4.62222 14.6667 5.66667C14.6667 6.17778 14.5807 6.67778 14.4087 7.16667C14.2363 7.65556 13.9334 8.19156 13.5 8.77467C13.0667 9.35822 12.4834 10.0167 11.75 10.75C11.0167 11.4833 10.0889 12.3556 8.96671 13.3667L8.00004 14.2333ZM8.00004 12.4333C9.06671 11.4778 9.94448 10.6582 10.6334 9.97467C11.3223 9.29156 11.8667 8.69733 12.2667 8.192C12.6667 7.68622 12.9445 7.236 13.1 6.84133C13.2556 6.44711 13.3334 6.05556 13.3334 5.66667C13.3334 5 13.1112 4.44444 12.6667 4C12.2223 3.55556 11.6667 3.33333 11 3.33333C10.4778 3.33333 9.99448 3.48044 9.55004 3.77467C9.1056 4.06933 8.80004 4.44444 8.63337 4.9H7.36671C7.20004 4.44444 6.89448 4.06933 6.45004 3.77467C6.0056 3.48044 5.52226 3.33333 5.00004 3.33333C4.33337 3.33333 3.77782 3.55556 3.33337 4C2.88893 4.44444 2.66671 5 2.66671 5.66667C2.66671 6.05556 2.74449 6.44711 2.90004 6.84133C3.0556 7.236 3.33337 7.68622 3.73337 8.192C4.13337 8.69733 4.67782 9.29156 5.36671 9.97467C6.0556 10.6582 6.93337 11.4778 8.00004 12.4333Z" fill="#D1D1D1"/>
</g>
</svg>
